#!OML:ASF H:\Martial Arts Walks\Project 1\Capture day 1\Session 1\male.ASF
:FULLY-SPECIFIED
:DEGREES
946
root -2.77469 14.0092 25.1035 5.07078 17.3359 0.576616
lowerback 10.0543 -1.18161 -8.00312
upperback -1.54779 -2.48204 1.50904
thorax -6.90689 -0.863066 6.51861
lowerneck 5.5031 -16.1148 -16.6457
upperneck 9.86923 -23.5503 14.043
head 5.74101 -11.8758 5.44121
rclavicle 6.96243e-014 -1.56046e-014
rhumerus -37.0828 14.5036 -77.6203
rradius 38.5604
rwrist 1.36378
rhand -12.2644 -39.2643
rfingers 7.12502
rthumb 13.8022 -68.7864
lclavicle 6.96243e-014 -1.56046e-014
lhumerus -36.0196 -13.8191 87.6272
lradius 67.7057
lwrist 6.65567
lhand -27.842 20.9259
lfingers 7.12502
lthumb -1.23336 50.9021
rfemur -59.9702 -14.5547 15.8471
rtibia 71.3482
rfoot -13.387 13.4879
rtoes 4.95586
lfemur 13.7171 -1.10621 -10.8272
ltibia 33.3991
lfoot -31.598 35.5637
ltoes -21.596
947
root -2.76915 14.0033 25.1055 5.09262 17.2536 0.619314
lowerback 10.096 -1.3276 -8.15223
upperback -1.56063 -2.69707 1.55036
thorax -6.90044 -0.961534 6.68152
lowerneck 5.95307 -16.3073 -16.9095
upperneck 9.58305 -23.8836 14.2656
head 5.69201 -12.0643 5.53907
rclavicle -2.54817e-014 3.57812e-015
rhumerus -37.0493 14.763 -77.8646
rradius 37.9008
rwrist 1.4337
rhand -12.2201 -39.1326
rfingers 7.12502
rthumb 13.8449 -68.6518
lclavicle -2.54817e-014 3.57812e-015
lhumerus -36.3284 -12.9653 87.3844
lradius 66.4004
lwrist 5.20429
lhand -27.9983 21.1243
lfingers 7.12502
lthumb -1.38423 51.0996
rfemur -60.042 -14.5248 15.8107
rtibia 71.4556
rfoot -13.5684 13.4008
rtoes 4.07505
lfemur 13.7935 -1.05489 -10.9163
ltibia 33.3207
lfoot -31.581 35.6584
ltoes -21.5419
948
root -2.7627 13.9961 25.1132 5.11883 17.1895 0.811527
lowerback 10.1019 -1.48256 -8.4519
upperback -1.52864 -2.94044 1.55999
thorax -6.81389 -1.07443 6.89625
lowerneck 6.3256 -16.472 -17.1655
upperneck 9.31333 -24.1749 14.5158
head 5.6582 -12.228 5.64197
rclavicle -4.50247e-014 9.93923e-016
rhumerus -36.9978 15.0789 -78.1037
rradius 37.3271
rwrist 1.54306
rhand -11.9404 -39.1249
rfingers 7.12502
rthumb 14.1144 -68.6255
lclavicle -4.50247e-014 9.93923e-016
lhumerus -36.5451 -12.1247 87.1299
lradius 65.0547
lwrist 3.90041
lhand -28.2598 20.9454
lfingers 7.12502
lthumb -1.63679 50.9188
rfemur -60.0759 -14.5448 15.5843
rtibia 71.5692
rfoot -13.5787 13.492
rtoes 4.32246
lfemur 13.946 -1.01789 -11.1518
ltibia 33.2226
lfoot -31.6338 35.7119
ltoes -21.5447
949
root -2.75915 13.9899 25.1159 5.14269 17.0739 0.830425
lowerback 10.068 -1.61488 -8.61634
upperback -1.47563 -3.12917 1.60887
thorax -6.6933 -1.16819 7.06498
lowerneck 6.35961 -16.6941 -17.328
upperneck 9.30133 -24.5055 14.6132
head 5.73578 -12.3927 5.64213
rclavicle 7.48549e-014 -1.2921e-014
rhumerus -36.8752 15.2571 -78.2862
rradius 36.814
rwrist 1.7547
rhand -11.8238 -38.9589
rfingers 7.12502
rthumb 14.2268 -68.4516
lclavicle 7.48549e-014 -1.2921e-014
lhumerus -36.6975 -11.3388 86.8514
lradius 63.768
lwrist 2.82474
lhand -28.3069 21.1297
lfingers 7.12502
lthumb -1.6823 51.1028
rfemur -60.1701 -14.436 15.5615
rtibia 71.656
rfoot -13.6121 13.4561
rtoes 4.00579
lfemur 14.0113 -0.9412 -11.2006
ltibia 33.1614
lfoot -31.6937 35.7466
ltoes -21.5058
950
root -2.75647 13.9856 25.1168 5.18766 16.9846 0.851941
lowerback 10.1101 -1.74195 -8.76567
upperback -1.5373 -3.32156 1.64965
thorax -6.73917 -1.25123 7.22545
lowerneck 6.79139 -16.8276 -17.531
upperneck 9.11976 -24.7622 14.7889
head 5.7007 -12.5423 5.72493
rclavicle -4.37947e-014 -1.76918e-014
rhumerus -36.9712 15.426 -78.5024
rradius 36.3539
rwrist 1.96864
rhand -11.6443 -38.8128
rfingers 7.12502
rthumb 14.3998 -68.2933
lclavicle -4.37947e-014 -1.76918e-014
lhumerus -37.0092 -10.6307 86.6333
lradius 62.4546
lwrist 1.87675
lhand -28.2901 21.7119
lfingers 7.12502
lthumb -1.66611 51.6851
rfemur -60.272 -14.3498 15.5444
rtibia 71.7164
rfoot -13.5922 13.461
rtoes 4.08671
lfemur 14.0286 -0.908381 -11.2579
ltibia 33.1139
lfoot -31.7389 35.7683
ltoes -21.4797
951
root -2.75218 13.9805 25.1147 5.23875 16.8944 0.811901
lowerback 10.1608 -1.87469 -8.82083
upperback -1.59486 -3.50977 1.699
thorax -6.78928 -1.33552 7.34148
lowerneck 6.99464 -16.9672 -17.7084
upperneck 9.13214 -25.0106 14.9041
head 5.7512 -12.6754 5.75943
rclavicle 2.07606e-014 -2.29596e-014
rhumerus -37.0598 15.5458 -78.6872
rradius 35.9935
rwrist 2.2754
rhand -11.4412 -38.6739
rfingers 7.12502
rthumb 14.5954 -68.1404
lclavicle 2.07606e-014 -2.29596e-014
lhumerus -37.2748 -9.94428 86.4147
lradius 61.0958
lwrist 0.932784
lhand -28.5294 21.5757
lfingers 7.12502
lthumb -1.89723 51.547
rfemur -60.3908 -14.2665 15.5905
rtibia 71.7665
rfoot -13.6572 13.4296
rtoes 3.82622
lfemur 13.9957 -0.832821 -11.2392
ltibia 33.1184
lfoot -31.7424 35.8175
ltoes -21.5034
952
root -2.74766 13.9755 25.1133 5.29471 16.8128 0.852372
lowerback 10.1897 -2.01942 -8.96401
upperback -1.60338 -3.72203 1.73414
thorax -6.76477 -1.43449 7.49194
lowerneck 7.19371 -17.0734 -17.8325
upperneck 9.02426 -25.2016 15.0637
head 5.755 -12.7795 5.81294
rclavicle -7.44324e-014 4.07509e-015
rhumerus -37.0877 15.6714 -78.8526
rradius 35.713
rwrist 2.54442
rhand -11.3115 -38.483
rfingers 7.12502
rthumb 14.7204 -67.9404
lclavicle -7.44324e-014 4.07509e-015
lhumerus -37.4584 -9.25362 86.1561
lradius 59.8096
lwrist 0.229637
lhand -28.9298 21.2129
lfingers 7.12502
lthumb -2.2839 51.1805
rfemur -60.4969 -14.2168 15.5425
rtibia 71.808
rfoot -13.6311 13.471
rtoes 3.88806
lfemur 13.9698 -0.774234 -11.3105
ltibia 33.132
lfoot -31.7013 35.9437
ltoes -21.5354
953
root -2.74341 13.9695 25.1114 5.3251 16.7116 0.883003
lowerback 10.2215 -2.13248 -9.08806
upperback -1.58905 -3.88874 1.77125
thorax -6.72565 -1.51359 7.62652
lowerneck 7.28342 -17.2014 -17.9858
upperneck 8.97294 -25.4165 15.2273
head 5.8029 -12.8898 5.85352
rclavicle 3.19422e-014 -3.37934e-015
rhumerus -37.0919 15.7101 -78.9564
rradius 35.4773
rwrist 2.81104
rhand -11.1719 -38.3491
rfingers 7.12502
rthumb 14.8549 -67.7966
lclavicle 3.19422e-014 -3.37934e-015
lhumerus -37.5607 -8.64224 85.9495
lradius 58.5333
lwrist -0.339937
lhand -29.4977 20.7228
lfingers 7.12502
lthumb -2.83239 50.6837
rfemur -60.5873 -14.1432 15.5001
rtibia 71.8529
rfoot -13.6103 13.4975
rtoes 3.87531
lfemur 13.9895 -0.697334 -11.3611
ltibia 33.1387
lfoot -31.8076 35.9136
ltoes -21.5177
954
root -2.74014 13.9652 25.1115 5.31582 16.5895 0.793451
lowerback 10.2849 -2.23663 -9.1122
upperback -1.61242 -4.03323 1.84342
thorax -6.75231 -1.57969 7.74338
lowerneck 7.4978 -17.2801 -18.1726
upperneck 8.87732 -25.5834 15.4271
head 5.81888 -12.9839 5.92971
rclavicle 1.31571e-014 1.16289e-014
rhumerus -37.1731 15.7945 -79.0624
rradius 35.2776
rwrist 2.99002
rhand -11.1983 -38.2043
rfingers 7.12502
rthumb 14.8295 -67.6536
lclavicle 1.31571e-014 1.16289e-014
lhumerus -37.7864 -8.09543 85.7674
lradius 57.3407
lwrist -0.783705
lhand -29.5133 21.1565
lfingers 7.12502
lthumb -2.84741 51.1173
rfemur -60.6427 -13.9966 15.5821
rtibia 71.885
rfoot -13.6219 13.4789
rtoes 3.77093
lfemur 14.0278 -0.589804 -11.2809
ltibia 33.1188
lfoot -31.7852 35.9624
ltoes -21.5718
955
root -2.73425 13.9607 25.1152 5.28685 16.4646 0.736533
lowerback 10.2757 -2.36037 -9.16054
upperback -1.5622 -4.19765 1.90001
thorax -6.65286 -1.66561 7.85056
lowerneck 7.66126 -17.3419 -18.2862
upperneck 8.66667 -25.7087 15.6819
head 5.79847 -13.0539 6.01891
rclavicle -4.34966e-014 -1.05356e-014
rhumerus -37.1543 15.7887 -79.132
rradius 35.1713
rwrist 3.24144
rhand -10.9497 -38.2066
rfingers 7.12502
rthumb 15.0689 -67.6382
lclavicle -4.34966e-014 -1.05356e-014
lhumerus -37.9155 -7.51087 85.5492
lradius 56.2175
lwrist -1.1721
lhand -28.8826 21.9212
lfingers 7.12502
lthumb -2.23833 51.8892
rfemur -60.6558 -13.889 15.6199
rtibia 71.9358
rfoot -13.6597 13.4945
rtoes 3.77569
lfemur 14.1315 -0.479713 -11.2448
ltibia 33.0644
lfoot -31.7775 36.0102
ltoes -21.5908
956
root -2.72933 13.9538 25.1159 5.30673 16.318 0.888849
lowerback 10.2481 -2.47398 -9.40354
upperback -1.53096 -4.37749 1.8828
thorax -6.55278 -1.75246 7.98933
lowerneck 7.96036 -17.3506 -18.4165
upperneck 8.39952 -25.7839 16.0063
head 5.74254 -13.1071 6.15432
rclavicle 1.24365e-014 1.74931e-014
rhumerus -37.2544 15.7766 -79.2415
rradius 35.1943
rwrist 3.35819
rhand -11.0037 -38.0485
rfingers 7.12502
rthumb 15.017 -67.484
lclavicle 1.24365e-014 1.74931e-014
lhumerus -38.0943 -6.973 85.3173
lradius 55.1196
lwrist -1.51351
lhand -28.0404 22.9173
lfingers 7.12502
lthumb -1.42494 52.8923
rfemur -60.7268 -13.8072 15.4452
rtibia 72.0215
rfoot -13.6687 13.5467
rtoes 3.73513
lfemur 14.2417 -0.401378 -11.4542
ltibia 33.0083
lfoot -31.7756 36.0636
ltoes -21.6253
957
root -2.72179 13.9482 25.1188 5.29603 16.2101 0.997096
lowerback 10.2629 -2.57863 -9.5396
upperback -1.52096 -4.53669 1.86554
thorax -6.51006 -1.82896 8.06843
lowerneck 7.97796 -17.4545 -18.4735
upperneck 8.54331 -25.9514 15.9891
head 5.8194 -13.1897 6.1253
rclavicle -3.31722e-014 2.16675e-014
rhumerus -37.3999 15.7997 -79.3573
rradius 35.2116
rwrist 3.27931
rhand -10.8289 -38.1489
rfingers 7.12502
rthumb 15.1853 -67.5717
lclavicle -3.31722e-014 2.16675e-014
lhumerus -38.268 -6.57697 85.1392
lradius 53.9967
lwrist -1.79335
lhand -27.599 23.1594
lfingers 7.12502
lthumb -0.998616 53.1368
rfemur -60.7388 -13.7961 15.3105
rtibia 72.1016
rfoot -13.7213 13.6082
rtoes 3.66504
lfemur 14.3655 -0.328937 -11.614
ltibia 32.9766
lfoot -31.8072 36.1218
ltoes -21.6479
958
root -2.7159 13.941 25.1172 5.31131 16.0982 1.10691
lowerback 10.3258 -2.67025 -9.6935
upperback -1.51543 -4.6847 1.86777
thorax -6.49849 -1.89671 8.18152
lowerneck 8.19136 -17.4881 -18.5845
upperneck 8.32786 -26.0411 16.2209
head 5.78119 -13.2461 6.21854
rclavicle -3.93345e-014 1.46107e-014
rhumerus -37.5395 15.6961 -79.3739
rradius 35.3581
rwrist 3.29384
rhand -10.8733 -38.1285
rfingers 7.12502
rthumb 15.1425 -67.5545
lclavicle -3.93345e-014 1.46107e-014
lhumerus -38.4124 -6.14176 84.9948
lradius 52.9461
lwrist -2.16231
lhand -26.4413 24.0628
lfingers 7.12502
lthumb 0.119512 54.0425
rfemur -60.8139 -13.7772 15.1937
rtibia 72.1903
rfoot -13.7848 13.6368
rtoes 3.27623
lfemur 14.4209 -0.204434 -11.758
ltibia 32.9716
lfoot -31.6699 36.2639
ltoes -21.8831
